<?xml version="1.0" encoding="UTF-8"?>
<!DOCTYPE svg PUBLIC "-//W3C//DTD SVG 1.1//EN" "http://www.w3.org/Graphics/SVG/1.1/DTD/svg11.dtd">
<svg xmlns="http://www.w3.org/2000/svg" version="1.1" width="1000px" height="224px" style="shape-rendering:geometricPrecision; text-rendering:geometricPrecision; image-rendering:optimizeQuality; fill-rule:evenodd; clip-rule:evenodd" xmlns:xlink="http://www.w3.org/1999/xlink">
<g><path style="opacity:0.969" fill="#4a90f0" d="M 256.5,7.5 C 258.144,7.28649 259.644,7.61983 261,8.5C 261.667,16.5 261.667,24.5 261,32.5C 258.733,33.9348 256.733,33.6015 255,31.5C 254.333,24.1667 254.333,16.8333 255,9.5C 255.717,8.9558 256.217,8.28913 256.5,7.5 Z"/></g>
<g><path style="opacity:0.926" fill="#4b91f0" d="M 215.5,24.5 C 221.429,28.9239 226.929,33.9239 232,39.5C 233.583,44.1004 232.083,45.9337 227.5,45C 222.667,40.1667 217.833,35.3333 213,30.5C 212.034,27.6603 212.867,25.6603 215.5,24.5 Z"/></g>
<g><path style="opacity:0.954" fill="#4b90f0" d="M 300.5,24.5 C 304.203,25.8935 305.037,28.2269 303,31.5C 298.833,35.6667 294.667,39.8333 290.5,44C 285.603,46.4356 283.436,44.9356 284,39.5C 289.121,33.8696 294.621,28.8696 300.5,24.5 Z"/></g>
<g><path style="opacity:0.996" fill="#4b91f1" d="M 350.5,223.5 C 234.5,223.5 118.5,223.5 2.5,223.5C 0.711575,220.255 1.37824,217.755 4.5,216C 16.5,215.667 28.5,215.333 40.5,215C 20.4927,199.152 14.326,178.985 22,154.5C 30.2477,135.951 44.4143,124.951 64.5,121.5C 59.2592,81.8083 74.9258,53.9749 111.5,38C 148.21,28.1791 177.543,38.6791 199.5,69.5C 234.842,59.423 260.009,71.0897 275,104.5C 276.807,110.369 277.641,116.369 277.5,122.5C 308.626,121.471 327.46,136.138 334,166.5C 335.673,186.649 328.506,202.816 312.5,215C 324.5,215.333 336.5,215.667 348.5,216C 351.622,217.755 352.288,220.255 350.5,223.5 Z"/></g>
<g><path style="opacity:0.944" fill="#034ab1" d="M 392.5,37.5 C 394.833,37.5 397.167,37.5 399.5,37.5C 398.323,48.2403 397.156,58.9069 396,69.5C 400.448,68.1377 404.781,66.471 409,64.5C 409.803,55.9025 410.97,47.4025 412.5,39C 416.097,37.7235 419.764,37.3901 423.5,38C 424.108,39.231 424.441,40.5643 424.5,42C 422,60.8333 419.5,79.6667 417,98.5C 413.27,99.4601 409.437,99.7935 405.5,99.5C 406.093,90.8273 406.76,82.1607 407.5,73.5C 403.17,74.3321 399.004,75.6654 395,77.5C 394.107,82.5232 393.107,87.5232 392,92.5C 387.887,99.3193 382.054,101.486 374.5,99C 369.332,93.4157 369.165,87.5823 374,81.5C 377.349,79.147 380.349,76.4804 383,73.5C 384.251,62.4895 385.585,51.4895 387,40.5C 388.876,39.3913 390.709,38.3913 392.5,37.5 Z M 380.5,84.5 C 381.613,85.9464 381.78,87.6131 381,89.5C 380.29,90.9733 379.124,91.6399 377.5,91.5C 377.15,88.5466 378.15,86.2133 380.5,84.5 Z"/></g>
<g><path style="opacity:0.909" fill="#024ab0" d="M 511.5,37.5 C 518.193,37.6853 521.026,41.0186 520,47.5C 517.839,51.1241 514.672,52.2907 510.5,51C 505.045,46.0111 505.378,41.5111 511.5,37.5 Z"/></g>
<g><path style="opacity:0.945" fill="#076efc" d="M 689.5,37.5 C 702.78,35.8035 710.113,41.4702 711.5,54.5C 708.5,54.5 705.5,54.5 702.5,54.5C 701.611,46.3821 697.278,43.8821 689.5,47C 684.153,50.7043 682.653,55.5377 685,61.5C 689.471,62.2591 693.971,63.0924 698.5,64C 701.55,67.8456 700.884,70.8456 696.5,73C 692.132,73.7089 687.799,73.5423 683.5,72.5C 679.641,73.7016 677.641,76.3682 677.5,80.5C 679.665,90.1934 685.665,93.6934 695.5,91C 703.174,87.8298 709.174,82.6631 713.5,75.5C 712.649,73.1184 711.316,71.1184 709.5,69.5C 708.813,71.5547 707.646,73.2214 706,74.5C 701.082,63.5923 704.582,58.759 716.5,60C 717.931,60.4652 719.097,61.2986 720,62.5C 721.08,64.9962 722.414,67.3295 724,69.5C 726.139,66.0607 728.639,62.894 731.5,60C 740.157,57.6608 743.657,60.8275 742,69.5C 739.747,73.5447 736.247,75.3781 731.5,75C 730.313,76.0195 729.313,77.1861 728.5,78.5C 730.453,82.9091 732.787,87.0758 735.5,91C 736.5,91.6667 737.5,91.6667 738.5,91C 739.67,88.8154 740.836,86.6488 742,84.5C 745.773,92.9741 742.939,98.3075 733.5,100.5C 731.5,100 729.5,99.5 727.5,99C 724.963,96.0937 722.796,92.927 721,89.5C 718.968,93.4083 716.134,96.575 712.5,99C 708.611,100.14 705.278,99.307 702.5,96.5C 689.444,102.906 677.611,101.239 667,91.5C 662.418,80.9142 664.918,72.4142 674.5,66C 669.302,55.9282 671.302,47.5949 680.5,41C 683.571,39.7043 686.571,38.5377 689.5,37.5 Z M 736.5,66.5 C 737.376,66.3691 738.043,66.7025 738.5,67.5C 734.499,71.7956 733.832,71.4623 736.5,66.5 Z"/></g>
<g><path style="opacity:0.95" fill="#076efc" d="M 800.5,37.5 C 806.008,36.7219 810.508,38.3885 814,42.5C 815.672,54.479 811.672,64.1457 802,71.5C 800.38,77.7449 799.713,84.0783 800,90.5C 804.398,92.1512 807.731,90.8179 810,86.5C 810.602,67.2279 820.435,58.7279 839.5,61C 847.11,63.5266 851.11,68.8599 851.5,77C 848.965,96.5501 838.298,103.55 819.5,98C 817.359,96.6924 815.359,95.1924 813.5,93.5C 807.574,99.5645 800.574,101.398 792.5,99C 789.112,96.7244 787.446,93.5578 787.5,89.5C 788.963,76.4957 790.463,63.4957 792,50.5C 792.381,44.3662 795.215,40.0328 800.5,37.5 Z M 805.5,45.5 C 807.89,45.6848 808.89,47.0182 808.5,49.5C 807.732,53.7032 805.898,57.3699 803,60.5C 802.857,55.3373 803.69,50.3373 805.5,45.5 Z M 830.5,67.5 C 836.835,68.5567 839.501,72.39 838.5,79C 838.777,85.6421 835.943,90.1421 830,92.5C 824.953,90.9258 822.787,87.4258 823.5,82C 823.084,75.7052 825.417,70.8719 830.5,67.5 Z"/></g>
<g><path style="opacity:0.982" fill="#4b91f1" d="M 255.5,38.5 C 280.856,40.6816 292.023,54.3483 289,79.5C 286.925,86.3996 283.091,92.0662 277.5,96.5C 267.189,76.596 251.022,64.596 229,60.5C 231.176,50.9775 237.009,44.4775 246.5,41C 249.628,40.1588 252.628,39.3254 255.5,38.5 Z"/></g>
<g><path style="opacity:0.951" fill="#076efc" d="M 971.5,55.5 C 980.276,55.7726 983.443,60.1059 981,68.5C 986.176,70.752 990.843,73.752 995,77.5C 1000.39,91.6877 995.392,99.3544 980,100.5C 973.264,100.563 969.097,97.3966 967.5,91C 968.534,85.2864 971.868,82.6197 977.5,83C 973.893,89.0514 975.559,91.7181 982.5,91C 985.791,88.668 986.291,85.8347 984,82.5C 981,80.1667 978,77.8333 975,75.5C 972.036,79.4658 968.703,83.1325 965,86.5C 959.462,95.114 961.628,101.114 971.5,104.5C 964.821,108.866 958.654,108.2 953,102.5C 949.58,96.3304 949.914,90.3304 954,84.5C 958.133,79.3656 962.633,74.5323 967.5,70C 963.437,63.7543 964.771,58.921 971.5,55.5 Z M 972.5,61.5 C 974.973,61.9473 975.14,62.9473 973,64.5C 972.517,63.552 972.351,62.552 972.5,61.5 Z"/></g>
<g><path style="opacity:0.932" fill="#034ab1" d="M 526.5,59.5 C 535.521,59.4011 544.521,59.7345 553.5,60.5C 553.789,63.6492 553.289,66.6492 552,69.5C 544.761,76.0687 538.261,83.2354 532.5,91C 533.833,91.6667 535.167,91.6667 536.5,91C 539.677,85.1632 544.344,83.4965 550.5,86C 554.701,91.7393 553.701,96.406 547.5,100C 538.199,100.954 529.033,100.454 520,98.5C 506.277,102.781 500.61,97.7806 503,83.5C 503.709,76.4508 504.709,69.4508 506,62.5C 509.583,60.7098 513.416,60.0431 517.5,60.5C 516.418,70.8253 515.418,81.1587 514.5,91.5C 517.325,91.9193 519.491,90.9193 521,88.5C 522.333,85.8333 523.667,83.1667 525,80.5C 525.837,82.0074 527.004,82.5074 528.5,82C 532.167,77.6667 535.833,73.3333 539.5,69C 538.833,68.3333 538.167,68.3333 537.5,69C 534.207,74.6508 529.541,76.3175 523.5,74C 519.062,67.9305 520.062,63.0971 526.5,59.5 Z M 527.5,68.5 C 532.814,68.2394 533.314,68.9061 529,70.5C 527.97,70.1639 527.47,69.4972 527.5,68.5 Z M 543.5,89.5 C 544.675,89.281 545.675,89.6143 546.5,90.5C 544.926,91.6309 543.259,91.7975 541.5,91C 542.416,90.7216 543.082,90.2216 543.5,89.5 Z"/></g>
<g><path style="opacity:0.953" fill="#034bb0" d="M 442.5,60.5 C 461.594,58.4247 469.428,66.758 466,85.5C 458.426,100.416 447.259,103.916 432.5,96C 425.506,87.8367 424.672,79.0034 430,69.5C 433.299,65.1179 437.466,62.1179 442.5,60.5 Z M 446.5,67.5 C 452.835,68.5567 455.501,72.39 454.5,79C 454.793,85.6021 451.959,90.1021 446,92.5C 440.953,90.9258 438.787,87.4258 439.5,82C 439.084,75.7052 441.417,70.8719 446.5,67.5 Z"/></g>
<g><path style="opacity:0.949" fill="#034ab1" d="M 474.5,60.5 C 478.783,59.9894 482.783,60.6561 486.5,62.5C 490.229,60.4917 494.229,59.9917 498.5,61C 503.559,67.771 501.892,71.9377 493.5,73.5C 493.767,71.0289 492.767,69.3622 490.5,68.5C 488.603,68.7282 487.27,69.7282 486.5,71.5C 493.654,77.7922 495.821,85.4589 493,94.5C 487.685,100.372 481.518,101.539 474.5,98C 472.091,94.7489 471.091,91.0823 471.5,87C 472.173,78.1061 473.173,69.2728 474.5,60.5 Z M 484.5,79.5 C 488.238,82.8591 488.905,86.6924 486.5,91C 485.552,91.4828 484.552,91.6495 483.5,91.5C 483.307,87.4338 483.64,83.4338 484.5,79.5 Z"/></g>
<g><path style="opacity:0.947" fill="#044ab1" d="M 570.5,60.5 C 590.147,58.6425 597.98,67.3091 594,86.5C 587.363,99.3742 577.197,103.208 563.5,98C 555.928,92.3877 553.428,84.8877 556,75.5C 558.351,67.9841 563.184,62.9841 570.5,60.5 Z M 574.5,67.5 C 577.099,67.5494 579.266,68.5494 581,70.5C 583.903,76.8461 583.57,83.1795 580,89.5C 571.917,94.1981 567.75,91.6981 567.5,82C 567.607,75.9553 569.94,71.122 574.5,67.5 Z"/></g>
<g><path style="opacity:0.95" fill="#034ab0" d="M 601.5,60.5 C 605.783,59.9894 609.783,60.6561 613.5,62.5C 619.123,60.124 624.79,59.9573 630.5,62C 633.316,64.1317 634.649,66.9651 634.5,70.5C 633.269,77.451 632.602,84.451 632.5,91.5C 635.325,91.9193 637.491,90.9193 639,88.5C 640.072,85.7821 641.238,83.1155 642.5,80.5C 643.892,81.6053 645.059,82.9386 646,84.5C 644.092,96.4192 637.259,101.252 625.5,99C 623.19,97.3626 621.69,95.196 621,92.5C 621.018,86.1608 621.518,79.8275 622.5,73.5C 621.548,67.2758 618.715,66.2758 614,70.5C 611.277,79.9421 609.777,89.6087 609.5,99.5C 605.5,99.5 601.5,99.5 597.5,99.5C 598.687,86.485 600.02,73.485 601.5,60.5 Z"/></g>
<g><path style="opacity:0.953" fill="#076efc" d="M 749.5,60.5 C 752.85,60.335 756.183,60.5017 759.5,61C 760,61.5 760.5,62 761,62.5C 777.524,57.6707 785.19,64.0041 784,81.5C 780.669,95.672 771.835,101.672 757.5,99.5C 755.599,106.358 754.266,113.358 753.5,120.5C 749.893,121.489 746.226,121.823 742.5,121.5C 744.469,101.108 746.803,80.7748 749.5,60.5 Z M 763.5,68.5 C 769.421,68.4208 772.421,71.4208 772.5,77.5C 772.258,82.8136 770.258,87.3136 766.5,91C 762.271,92.4976 759.271,91.3309 757.5,87.5C 758.332,82.8501 759.165,78.1834 760,73.5C 760.997,71.6769 762.164,70.0103 763.5,68.5 Z"/></g>
<g><path style="opacity:0.946" fill="#076efb" d="M 858.5,60.5 C 862.783,59.9894 866.783,60.6561 870.5,62.5C 874.229,60.4917 878.229,59.9917 882.5,61C 887.559,67.771 885.892,71.9377 877.5,73.5C 878.158,69.3228 876.492,67.8228 872.5,69C 871.643,69.6891 870.977,70.5224 870.5,71.5C 877.654,77.7922 879.821,85.4589 877,94.5C 871.685,100.372 865.518,101.539 858.5,98C 856.091,94.7489 855.091,91.0823 855.5,87C 856.173,78.1061 857.173,69.2728 858.5,60.5 Z M 868.5,79.5 C 872.238,82.8591 872.905,86.6924 870.5,91C 869.552,91.4828 868.552,91.6495 867.5,91.5C 867.307,87.4338 867.64,83.4338 868.5,79.5 Z"/></g>
<g><path style="opacity:0.95" fill="#076efc" d="M 900.5,60.5 C 905.179,60.3342 909.845,60.5008 914.5,61C 923.837,66.3614 924.837,73.0281 917.5,81C 912.923,83.9539 907.923,85.7872 902.5,86.5C 902.167,84.5 901.833,82.5 901.5,80.5C 906.706,79.6293 910.039,76.6293 911.5,71.5C 910.514,67.8529 908.181,66.6862 904.5,68C 898.947,72.6182 897.114,78.4515 899,85.5C 899.685,88.0573 901.185,89.8906 903.5,91C 913.458,92.104 920.958,88.2706 926,79.5C 927.244,73.2153 928.077,66.8819 928.5,60.5C 932.783,59.9894 936.783,60.6561 940.5,62.5C 945.09,60.0824 949.756,59.9157 954.5,62C 957.728,69.0299 955.395,72.8633 947.5,73.5C 948.158,69.3228 946.492,67.8228 942.5,69C 941.643,69.6891 940.977,70.5224 940.5,71.5C 948.84,78.3547 950.673,86.688 946,96.5C 937.126,102.74 930.293,101.073 925.5,91.5C 919.455,96.6293 912.455,99.6293 904.5,100.5C 896.051,100.204 890.218,96.2044 887,88.5C 884.314,75.5424 888.814,66.209 900.5,60.5 Z M 938.5,79.5 C 942.362,82.3022 943.362,85.9689 941.5,90.5C 940.311,91.4287 938.978,91.762 937.5,91.5C 937.646,87.4809 937.979,83.4809 938.5,79.5 Z"/></g>
<g><path style="opacity:0.891" fill="#4a90f0" d="M 296.5,67.5 C 304.507,67.3336 312.507,67.5003 320.5,68C 322.032,70.33 321.698,72.33 319.5,74C 312.167,74.6667 304.833,74.6667 297.5,74C 295.316,72.1024 294.983,69.9358 296.5,67.5 Z"/></g>
<g><path style="opacity:0.919" fill="#4a90f0" d="M 284.5,96.5 C 286.199,96.3398 287.866,96.5065 289.5,97C 294,101.5 298.5,106 303,110.5C 304.583,115.1 303.083,116.934 298.5,116C 293.667,111.167 288.833,106.333 284,101.5C 283.36,99.735 283.527,98.0683 284.5,96.5 Z"/></g>
<g><path style="opacity:0.913" fill="#076efc" d="M 502.5,141.5 C 504.467,141.261 506.301,141.594 508,142.5C 508.667,155.167 508.667,167.833 508,180.5C 506,183.167 504,183.167 502,180.5C 501.833,178.5 501.667,176.5 501.5,174.5C 501.437,163.47 501.77,152.47 502.5,141.5 Z"/></g>
<g><path style="opacity:0.918" fill="#076efb" d="M 375.5,143.5 C 377.467,143.261 379.301,143.594 381,144.5C 381.497,146.81 381.663,149.143 381.5,151.5C 385.395,151.857 386.395,153.857 384.5,157.5C 383.264,158.246 381.93,158.579 380.5,158.5C 380.161,163.93 380.661,169.264 382,174.5C 384.759,174.957 386.593,176.457 387.5,179C 387.739,181.259 386.739,182.426 384.5,182.5C 380.232,182.122 377.065,180.122 375,176.5C 374.501,170.509 374.334,164.509 374.5,158.5C 371.003,158.005 370.003,156.172 371.5,153C 372.448,152.517 373.448,152.351 374.5,152.5C 374.264,149.391 374.597,146.391 375.5,143.5 Z"/></g>
<g><path style="opacity:0.943" fill="#066efb" d="M 392.5,151.5 C 395.238,150.965 397.072,151.965 398,154.5C 401.256,152.571 404.756,152.071 408.5,153C 409.833,154.667 409.833,156.333 408.5,158C 404.442,158.378 400.942,159.878 398,162.5C 397.667,168.833 397.333,175.167 397,181.5C 395.333,182.833 393.667,182.833 392,181.5C 391.193,171.423 391.36,161.423 392.5,151.5 Z"/></g>
<g><path style="opacity:0.92" fill="#076efc" d="M 421.5,151.5 C 427.448,150.528 431.948,152.528 435,157.5C 436.309,165.131 436.642,172.797 436,180.5C 433.541,183.1 431.041,183.1 428.5,180.5C 417.511,185.014 410.845,181.514 408.5,170C 409.649,161.387 413.983,155.22 421.5,151.5 Z M 422.5,158.5 C 424.467,158.261 426.301,158.594 428,159.5C 432.586,170.705 429.086,175.705 417.5,174.5C 415.031,171.326 414.864,167.993 417,164.5C 418.36,161.977 420.193,159.977 422.5,158.5 Z"/></g>
<g><path style="opacity:0.919" fill="#076efc" d="M 439.5,151.5 C 441.722,151.178 443.556,151.845 445,153.5C 447.137,159.579 449.471,165.579 452,171.5C 454.667,165.5 457.333,159.5 460,153.5C 462,150.833 464,150.833 466,153.5C 464.297,160.27 461.964,166.937 459,173.5C 457.789,176.759 455.956,179.592 453.5,182C 452.167,182.667 450.833,182.667 449.5,182C 445.42,174.097 441.92,165.93 439,157.5C 438.322,155.402 438.489,153.402 439.5,151.5 Z"/></g>
<g><path style="opacity:0.921" fill="#076efc" d="M 540.5,151.5 C 546.114,150.414 550.614,152.08 554,156.5C 555.724,165.014 555.891,173.514 554.5,182C 551.783,183.033 549.949,182.2 549,179.5C 543.692,183.325 538.192,183.491 532.5,180C 530.951,178.786 529.785,177.286 529,175.5C 527.224,164.72 531.058,156.72 540.5,151.5 Z M 541.5,158.5 C 547.747,157.249 550.08,159.749 548.5,166C 549.044,173.914 545.377,176.914 537.5,175C 533.882,171.429 533.716,167.595 537,163.5C 538.707,161.963 540.207,160.296 541.5,158.5 Z"/></g>
<g><path style="opacity:0.93" fill="#076efb" d="M 571.5,151.5 C 574.883,151.257 578.049,151.924 581,153.5C 582.733,151.398 584.733,151.065 587,152.5C 589.327,164.6 588.994,176.6 586,188.5C 580.654,193.593 574.487,195.093 567.5,193C 563.06,191.125 561.393,187.959 562.5,183.5C 566.392,181.577 568.726,182.743 569.5,187C 572.5,187.667 575.5,187.667 578.5,187C 579.966,185.448 580.966,183.614 581.5,181.5C 563.316,183.126 557.149,175.126 563,157.5C 565.322,154.605 568.155,152.605 571.5,151.5 Z M 571.5,159.5 C 580.328,158.839 583.495,162.839 581,171.5C 577.465,176.332 573.465,176.665 569,172.5C 566.467,167.351 567.3,163.018 571.5,159.5 Z"/></g>
<g><path style="opacity:0.92" fill="#076efc" d="M 629.5,151.5 C 632.238,150.965 634.072,151.965 635,154.5C 642.532,149.569 648.532,150.902 653,158.5C 653.667,165.833 653.667,173.167 653,180.5C 651,183.167 649,183.167 647,180.5C 647.073,174.838 647.073,169.171 647,163.5C 643.849,157.214 639.849,156.881 635,162.5C 634.667,168.833 634.333,175.167 634,181.5C 632.333,182.833 630.667,182.833 629,181.5C 627.416,172.242 627.083,162.909 628,153.5C 628.717,152.956 629.217,152.289 629.5,151.5 Z"/></g>
<g><path style="opacity:0.911" fill="#076efc" d="M 669.5,151.5 C 674.9,150.785 679.4,152.452 683,156.5C 684.583,161.1 683.083,162.934 678.5,162C 673.274,156.912 669.107,157.745 666,164.5C 664.112,173.279 667.612,176.779 676.5,175C 677.944,173.237 678.944,171.237 679.5,169C 681.112,168.28 682.612,168.446 684,169.5C 686.178,175.951 684.011,180.118 677.5,182C 661.971,183.47 656.138,176.637 660,161.5C 662.048,156.955 665.215,153.622 669.5,151.5 Z"/></g>
<g><path style="opacity:0.93" fill="#076efc" d="M 687.5,151.5 C 689.144,151.286 690.644,151.62 692,152.5C 693.876,157.963 696.043,163.297 698.5,168.5C 700.372,163.386 702.539,158.386 705,153.5C 707.839,150.591 710.006,150.925 711.5,154.5C 706.975,165.242 703.141,176.242 700,187.5C 696.813,193.236 692.146,194.902 686,192.5C 685.333,191.167 685.333,189.833 686,188.5C 688.071,187.475 690.238,186.642 692.5,186C 693.944,184.874 694.61,183.374 694.5,181.5C 692.502,173.673 690.002,166.006 687,158.5C 686.297,156.071 686.463,153.738 687.5,151.5 Z"/></g>
<g><path style="opacity:0.934" fill="#076efc" d="M 477.5,152.5 C 491.143,150.321 497.643,155.988 497,169.5C 489.579,170.316 482.079,170.816 474.5,171C 476.852,174.591 480.185,176.424 484.5,176.5C 487.722,175.031 491.056,174.531 494.5,175C 496.154,179.381 494.488,181.714 489.5,182C 471.191,183.704 464.691,175.871 470,158.5C 472.134,155.847 474.634,153.847 477.5,152.5 Z M 480.5,158.5 C 484.257,158.302 487.257,159.635 489.5,162.5C 485,164.636 480.333,164.969 475.5,163.5C 476.882,161.451 478.548,159.785 480.5,158.5 Z"/></g>
<g><path style="opacity:0.941" fill="#066efc" d="M 602.5,152.5 C 614.134,149.988 621.134,154.488 623.5,166C 623.561,167.711 622.894,169.044 621.5,170C 614.5,170.333 607.5,170.667 600.5,171C 601.909,173.879 604.243,175.545 607.5,176C 611.833,175.667 616.167,175.333 620.5,175C 621.752,179.118 620.085,181.451 615.5,182C 598.766,184.916 591.599,178.083 594,161.5C 595.688,157.315 598.521,154.315 602.5,152.5 Z M 606.5,158.5 C 610.323,158.411 613.323,159.911 615.5,163C 610.589,164.492 605.589,164.826 600.5,164C 601.923,161.469 603.923,159.635 606.5,158.5 Z"/></g>
</svg>
